<?xml version="1.0" encoding="UTF-8" standalone="no"?>
<!DOCTYPE svg PUBLIC "-//W3C//DTD SVG 1.1//EN"
 "http://www.w3.org/Graphics/SVG/1.1/DTD/svg11.dtd">
<!-- Generated by graphviz version 2.43.0 (0)
 -->
<!-- Title: prufer Pages: 1 -->
<svg width="411pt" height="314pt"
 viewBox="0.00 0.00 411.00 314.00" xmlns="http://www.w3.org/2000/svg" xmlns:xlink="http://www.w3.org/1999/xlink">
<g id="graph0" class="graph" transform="scale(1 1) rotate(0) translate(4 310)">
<title>prufer</title>
<polygon fill="white" stroke="transparent" points="-4,4 -4,-310 407,-310 407,4 -4,4"/>
<!-- 1 -->
<g id="node1" class="node">
<title>1</title>
<polygon fill="none" stroke="purple" stroke-width="2" points="84,-234 81,-238 60,-238 57,-234 30,-234 30,-198 84,-198 84,-234"/>
<text text-anchor="middle" x="57" y="-212.3" font-family="times bold" font-size="14.00" fill="purple">1</text>
</g>
<!-- 12 -->
<g id="node13" class="node">
<title>12</title>
<polygon fill="none" stroke="orange" stroke-width="2" points="23,-153 0,-153 0,-135 26,-135 26,-150 23,-153"/>
<polyline fill="none" stroke="orange" stroke-width="2" points="23,-153 23,-150 "/>
<polyline fill="none" stroke="orange" stroke-width="2" points="26,-150 23,-150 "/>
<text text-anchor="middle" x="13" y="-137.8" font-family="times bold" font-size="9.00" fill="purple">12</text>
</g>
<!-- 1&#45;&gt;12 -->
<g id="edge5" class="edge">
<title>1&#45;&gt;12</title>
<path fill="none" stroke="black" d="M46.12,-197.7C39.2,-186.67 30.27,-172.47 23.43,-161.59"/>
<polygon fill="black" stroke="black" points="26.34,-159.65 18.06,-153.05 20.42,-163.38 26.34,-159.65"/>
</g>
<!-- 15 -->
<g id="node16" class="node">
<title>15</title>
<polygon fill="none" stroke="orange" stroke-width="2" points="67,-153 44,-153 44,-135 70,-135 70,-150 67,-153"/>
<polyline fill="none" stroke="orange" stroke-width="2" points="67,-153 67,-150 "/>
<polyline fill="none" stroke="orange" stroke-width="2" points="70,-150 67,-150 "/>
<text text-anchor="middle" x="57" y="-137.8" font-family="times bold" font-size="9.00" fill="purple">15</text>
</g>
<!-- 1&#45;&gt;15 -->
<g id="edge8" class="edge">
<title>1&#45;&gt;15</title>
<path fill="none" stroke="black" d="M57,-197.7C57,-187.23 57,-173.9 57,-163.27"/>
<polygon fill="black" stroke="black" points="60.5,-163.05 57,-153.05 53.5,-163.05 60.5,-163.05"/>
</g>
<!-- 2 -->
<g id="node2" class="node">
<title>2</title>
<polygon fill="none" stroke="purple" stroke-width="2" points="214,-162 211,-166 190,-166 187,-162 160,-162 160,-126 214,-126 214,-162"/>
<text text-anchor="middle" x="187" y="-140.3" font-family="times bold" font-size="14.00" fill="purple">2</text>
</g>
<!-- 16 -->
<g id="node17" class="node">
<title>16</title>
<polygon fill="none" stroke="orange" stroke-width="2" points="197,-81 174,-81 174,-63 200,-63 200,-78 197,-81"/>
<polyline fill="none" stroke="orange" stroke-width="2" points="197,-81 197,-78 "/>
<polyline fill="none" stroke="orange" stroke-width="2" points="200,-78 197,-78 "/>
<text text-anchor="middle" x="187" y="-65.8" font-family="times bold" font-size="9.00" fill="purple">16</text>
</g>
<!-- 2&#45;&gt;16 -->
<g id="edge10" class="edge">
<title>2&#45;&gt;16</title>
<path fill="none" stroke="black" d="M187,-125.7C187,-115.23 187,-101.9 187,-91.27"/>
<polygon fill="black" stroke="black" points="190.5,-91.05 187,-81.05 183.5,-91.05 190.5,-91.05"/>
</g>
<!-- 3 -->
<g id="node3" class="node">
<title>3</title>
<polygon fill="none" stroke="purple" stroke-width="2" points="185,-234 182,-238 161,-238 158,-234 131,-234 131,-198 185,-198 185,-234"/>
<text text-anchor="middle" x="158" y="-212.3" font-family="times bold" font-size="14.00" fill="purple">3</text>
</g>
<!-- 8 -->
<g id="node8" class="node">
<title>8</title>
<polygon fill="none" stroke="purple" stroke-width="2" points="142,-162 139,-166 118,-166 115,-162 88,-162 88,-126 142,-126 142,-162"/>
<text text-anchor="middle" x="115" y="-140.3" font-family="times bold" font-size="14.00" fill="purple">8</text>
</g>
<!-- 3&#45;&gt;8 -->
<g id="edge14" class="edge">
<title>3&#45;&gt;8</title>
<path fill="none" stroke="black" d="M147.37,-197.7C142.37,-189.56 136.31,-179.69 130.79,-170.7"/>
<polygon fill="black" stroke="black" points="133.72,-168.79 125.51,-162.1 127.76,-172.46 133.72,-168.79"/>
</g>
<!-- 4 -->
<g id="node4" class="node">
<title>4</title>
<polygon fill="none" stroke="purple" stroke-width="2" points="142,-90 139,-94 118,-94 115,-90 88,-90 88,-54 142,-54 142,-90"/>
<text text-anchor="middle" x="115" y="-68.3" font-family="times bold" font-size="14.00" fill="purple">4</text>
</g>
<!-- 13 -->
<g id="node14" class="node">
<title>13</title>
<polygon fill="none" stroke="orange" stroke-width="2" points="81,-18 58,-18 58,0 84,0 84,-15 81,-18"/>
<polyline fill="none" stroke="orange" stroke-width="2" points="81,-18 81,-15 "/>
<polyline fill="none" stroke="orange" stroke-width="2" points="84,-15 81,-15 "/>
<text text-anchor="middle" x="71" y="-2.8" font-family="times bold" font-size="9.00" fill="purple">13</text>
</g>
<!-- 4&#45;&gt;13 -->
<g id="edge6" class="edge">
<title>4&#45;&gt;13</title>
<path fill="none" stroke="black" d="M102.51,-53.68C96.31,-45.1 88.87,-34.78 82.78,-26.33"/>
<polygon fill="black" stroke="black" points="85.51,-24.13 76.82,-18.06 79.83,-28.22 85.51,-24.13"/>
</g>
<!-- 14 -->
<g id="node15" class="node">
<title>14</title>
<polygon fill="none" stroke="orange" stroke-width="2" points="125,-18 102,-18 102,0 128,0 128,-15 125,-18"/>
<polyline fill="none" stroke="orange" stroke-width="2" points="125,-18 125,-15 "/>
<polyline fill="none" stroke="orange" stroke-width="2" points="128,-15 125,-15 "/>
<text text-anchor="middle" x="115" y="-2.8" font-family="times bold" font-size="9.00" fill="purple">14</text>
</g>
<!-- 4&#45;&gt;14 -->
<g id="edge7" class="edge">
<title>4&#45;&gt;14</title>
<path fill="none" stroke="black" d="M115,-53.68C115,-45.73 115,-36.31 115,-28.25"/>
<polygon fill="black" stroke="black" points="118.5,-28.06 115,-18.06 111.5,-28.06 118.5,-28.06"/>
</g>
<!-- 17 -->
<g id="node18" class="node">
<title>17</title>
<polygon fill="none" stroke="orange" stroke-width="2" points="169,-18 146,-18 146,0 172,0 172,-15 169,-18"/>
<polyline fill="none" stroke="orange" stroke-width="2" points="169,-18 169,-15 "/>
<polyline fill="none" stroke="orange" stroke-width="2" points="172,-15 169,-15 "/>
<text text-anchor="middle" x="159" y="-2.8" font-family="times bold" font-size="9.00" fill="purple">17</text>
</g>
<!-- 4&#45;&gt;17 -->
<g id="edge12" class="edge">
<title>4&#45;&gt;17</title>
<path fill="none" stroke="black" d="M127.49,-53.68C133.69,-45.1 141.13,-34.78 147.22,-26.33"/>
<polygon fill="black" stroke="black" points="150.17,-28.22 153.18,-18.06 144.49,-24.13 150.17,-28.22"/>
</g>
<!-- 5 -->
<g id="node5" class="node">
<title>5</title>
<polygon fill="none" stroke="purple" stroke-width="2" points="271,-234 268,-238 247,-238 244,-234 217,-234 217,-198 271,-198 271,-234"/>
<text text-anchor="middle" x="244" y="-212.3" font-family="times bold" font-size="14.00" fill="purple">5</text>
</g>
<!-- 5&#45;&gt;2 -->
<g id="edge11" class="edge">
<title>5&#45;&gt;2</title>
<path fill="none" stroke="black" d="M229.91,-197.7C223.08,-189.3 214.74,-179.07 207.24,-169.86"/>
<polygon fill="black" stroke="black" points="209.96,-167.65 200.93,-162.1 204.53,-172.07 209.96,-167.65"/>
</g>
<!-- 6 -->
<g id="node6" class="node">
<title>6</title>
<polygon fill="none" stroke="purple" stroke-width="2" points="286,-162 283,-166 262,-166 259,-162 232,-162 232,-126 286,-126 286,-162"/>
<text text-anchor="middle" x="259" y="-140.3" font-family="times bold" font-size="14.00" fill="purple">6</text>
</g>
<!-- 5&#45;&gt;6 -->
<g id="edge17" class="edge">
<title>5&#45;&gt;6</title>
<path fill="none" stroke="black" d="M247.71,-197.7C249.36,-189.98 251.35,-180.71 253.19,-172.11"/>
<polygon fill="black" stroke="black" points="256.66,-172.62 255.33,-162.1 249.82,-171.15 256.66,-172.62"/>
</g>
<!-- 0 -->
<g id="node9" class="node">
<title>0</title>
<polygon fill="none" stroke="orange" stroke-width="2" points="322.5,-153 304.5,-153 304.5,-135 325.5,-135 325.5,-150 322.5,-153"/>
<polyline fill="none" stroke="orange" stroke-width="2" points="322.5,-153 322.5,-150 "/>
<polyline fill="none" stroke="orange" stroke-width="2" points="325.5,-150 322.5,-150 "/>
<text text-anchor="middle" x="315" y="-137.8" font-family="times bold" font-size="9.00" fill="purple">0</text>
</g>
<!-- 5&#45;&gt;0 -->
<g id="edge1" class="edge">
<title>5&#45;&gt;0</title>
<path fill="none" stroke="black" d="M261.55,-197.7C273.18,-186.23 288.3,-171.32 299.49,-160.29"/>
<polygon fill="black" stroke="black" points="302.17,-162.56 306.84,-153.05 297.26,-157.58 302.17,-162.56"/>
</g>
<!-- 10 -->
<g id="node11" class="node">
<title>10</title>
<polygon fill="none" stroke="orange" stroke-width="2" points="367,-153 344,-153 344,-135 370,-135 370,-150 367,-153"/>
<polyline fill="none" stroke="orange" stroke-width="2" points="367,-153 367,-150 "/>
<polyline fill="none" stroke="orange" stroke-width="2" points="370,-150 367,-150 "/>
<text text-anchor="middle" x="357" y="-137.8" font-family="times bold" font-size="9.00" fill="purple">10</text>
</g>
<!-- 5&#45;&gt;10 -->
<g id="edge3" class="edge">
<title>5&#45;&gt;10</title>
<path fill="none" stroke="black" d="M271.24,-200.36C289.62,-190.19 314.22,-175.99 335,-162 336.25,-161.16 337.52,-160.27 338.8,-159.35"/>
<polygon fill="black" stroke="black" points="341.03,-162.05 346.91,-153.24 336.82,-156.46 341.03,-162.05"/>
</g>
<!-- 9 -->
<g id="node10" class="node">
<title>9</title>
<polygon fill="none" stroke="orange" stroke-width="2" points="251.5,-81 233.5,-81 233.5,-63 254.5,-63 254.5,-78 251.5,-81"/>
<polyline fill="none" stroke="orange" stroke-width="2" points="251.5,-81 251.5,-78 "/>
<polyline fill="none" stroke="orange" stroke-width="2" points="254.5,-78 251.5,-78 "/>
<text text-anchor="middle" x="244" y="-65.8" font-family="times bold" font-size="9.00" fill="purple">9</text>
</g>
<!-- 6&#45;&gt;9 -->
<g id="edge2" class="edge">
<title>6&#45;&gt;9</title>
<path fill="none" stroke="black" d="M255.29,-125.7C253.03,-115.12 250.13,-101.62 247.84,-90.93"/>
<polygon fill="black" stroke="black" points="251.24,-90.09 245.72,-81.05 244.4,-91.56 251.24,-90.09"/>
</g>
<!-- 18 -->
<g id="node19" class="node">
<title>18</title>
<polygon fill="none" stroke="orange" stroke-width="2" points="296,-81 273,-81 273,-63 299,-63 299,-78 296,-81"/>
<polyline fill="none" stroke="orange" stroke-width="2" points="296,-81 296,-78 "/>
<polyline fill="none" stroke="orange" stroke-width="2" points="299,-78 296,-78 "/>
<text text-anchor="middle" x="286" y="-65.8" font-family="times bold" font-size="9.00" fill="purple">18</text>
</g>
<!-- 6&#45;&gt;18 -->
<g id="edge16" class="edge">
<title>6&#45;&gt;18</title>
<path fill="none" stroke="black" d="M265.67,-125.7C269.8,-115.01 275.07,-101.33 279.22,-90.59"/>
<polygon fill="black" stroke="black" points="282.56,-91.64 282.9,-81.05 276.03,-89.12 282.56,-91.64"/>
</g>
<!-- 7 -->
<g id="node7" class="node">
<title>7</title>
<path fill="orange" stroke="purple" d="M300,-302.73C300,-304.53 287.9,-306 273,-306 258.1,-306 246,-304.53 246,-302.73 246,-302.73 246,-273.27 246,-273.27 246,-271.47 258.1,-270 273,-270 287.9,-270 300,-271.47 300,-273.27 300,-273.27 300,-302.73 300,-302.73"/>
<path fill="none" stroke="purple" d="M300,-302.73C300,-300.92 287.9,-299.45 273,-299.45 258.1,-299.45 246,-300.92 246,-302.73"/>
<text text-anchor="middle" x="273" y="-284.3" font-family="times bold" font-size="14.00" fill="purple">HDF5</text>
</g>
<!-- 7&#45;&gt;1 -->
<g id="edge9" class="edge">
<title>7&#45;&gt;1</title>
<path fill="none" stroke="black" d="M245.64,-278.13C207.1,-265.64 136.71,-242.83 93.67,-228.88"/>
<polygon fill="black" stroke="black" points="94.73,-225.55 84.13,-225.79 92.57,-232.21 94.73,-225.55"/>
</g>
<!-- 7&#45;&gt;3 -->
<g id="edge15" class="edge">
<title>7&#45;&gt;3</title>
<path fill="none" stroke="black" d="M247.19,-271.29C231.51,-261.75 211.27,-249.42 194.03,-238.93"/>
<polygon fill="black" stroke="black" points="195.69,-235.84 185.33,-233.63 192.05,-241.82 195.69,-235.84"/>
</g>
<!-- 7&#45;&gt;5 -->
<g id="edge18" class="edge">
<title>7&#45;&gt;5</title>
<path fill="none" stroke="black" d="M265.83,-269.7C262.57,-261.81 258.63,-252.3 255,-243.55"/>
<polygon fill="black" stroke="black" points="258.15,-242 251.09,-234.1 251.68,-244.68 258.15,-242"/>
</g>
<!-- 11 -->
<g id="node12" class="node">
<title>11</title>
<polygon fill="none" stroke="orange" stroke-width="2" points="312,-225 289,-225 289,-207 315,-207 315,-222 312,-225"/>
<polyline fill="none" stroke="orange" stroke-width="2" points="312,-225 312,-222 "/>
<polyline fill="none" stroke="orange" stroke-width="2" points="315,-222 312,-222 "/>
<text text-anchor="middle" x="302" y="-209.8" font-family="times bold" font-size="9.00" fill="purple">11</text>
</g>
<!-- 7&#45;&gt;11 -->
<g id="edge4" class="edge">
<title>7&#45;&gt;11</title>
<path fill="none" stroke="black" d="M280.17,-269.7C284.6,-259.01 290.26,-245.33 294.71,-234.59"/>
<polygon fill="black" stroke="black" points="298.07,-235.63 298.67,-225.05 291.61,-232.95 298.07,-235.63"/>
</g>
<!-- 19 -->
<g id="node20" class="node">
<title>19</title>
<polygon fill="none" stroke="orange" stroke-width="2" points="356,-225 333,-225 333,-207 359,-207 359,-222 356,-225"/>
<polyline fill="none" stroke="orange" stroke-width="2" points="356,-225 356,-222 "/>
<polyline fill="none" stroke="orange" stroke-width="2" points="359,-222 356,-222 "/>
<text text-anchor="middle" x="346" y="-209.8" font-family="times bold" font-size="9.00" fill="purple">19</text>
</g>
<!-- 7&#45;&gt;19 -->
<g id="edge19" class="edge">
<title>7&#45;&gt;19</title>
<path fill="none" stroke="black" d="M290.67,-270.05C302.74,-258.48 318.59,-243.28 330.23,-232.12"/>
<polygon fill="black" stroke="black" points="332.72,-234.58 337.52,-225.13 327.88,-229.53 332.72,-234.58"/>
</g>
<!-- 20 -->
<g id="node21" class="node">
<title>20</title>
<polygon fill="none" stroke="orange" stroke-width="2" points="400,-225 377,-225 377,-207 403,-207 403,-222 400,-225"/>
<polyline fill="none" stroke="orange" stroke-width="2" points="400,-225 400,-222 "/>
<polyline fill="none" stroke="orange" stroke-width="2" points="403,-222 400,-222 "/>
<text text-anchor="middle" x="390" y="-209.8" font-family="times bold" font-size="9.00" fill="purple">20</text>
</g>
<!-- 7&#45;&gt;20 -->
<g id="edge20" class="edge">
<title>7&#45;&gt;20</title>
<path fill="none" stroke="black" d="M300.25,-273.19C319.59,-263.05 345.93,-248.56 368,-234 369.26,-233.17 370.54,-232.29 371.81,-231.38"/>
<polygon fill="black" stroke="black" points="374.04,-234.09 379.94,-225.28 369.84,-228.49 374.04,-234.09"/>
</g>
<!-- 8&#45;&gt;4 -->
<g id="edge13" class="edge">
<title>8&#45;&gt;4</title>
<path fill="none" stroke="black" d="M115,-125.7C115,-117.98 115,-108.71 115,-100.11"/>
<polygon fill="black" stroke="black" points="118.5,-100.1 115,-90.1 111.5,-100.1 118.5,-100.1"/>
</g>
</g>
</svg>
